<?xml version="1.0" standalone="no"?>
<!DOCTYPE svg PUBLIC "-//W3C//DTD SVG 20010904//EN"
 "http://www.w3.org/TR/2001/REC-SVG-20010904/DTD/svg10.dtd">
<svg version="1.0" xmlns="http://www.w3.org/2000/svg"
 width="823.000000pt" height="823.000000pt" viewBox="0 0 823.000000 823.000000"
 preserveAspectRatio="xMidYMid meet">
<metadata>
Created by potrace 1.11, written by Peter Selinger 2001-2013
</metadata>
<g transform="translate(0.000000,823.000000) scale(0.100000,-0.100000)"
fill="#000000" stroke="none">
<path d="M0 5867 l0 -2363 1942 387 c1069 213 1944 386 1946 384 5 -4 -70
-399 -77 -407 -3 -4 -852 -88 -1886 -188 -1034 -99 -1890 -183 -1902 -186
l-23 -4 0 -1745 0 -1745 4115 0 4115 0 0 4115 0 4115 -4115 0 -4115 0 0 -2363z
m7683 -361 c88 -43 105 -130 66 -339 -12 -67 -27 -127 -33 -133 -6 -6 -105
-26 -221 -43 -115 -18 -222 -35 -236 -38 l-27 -5 15 62 c7 34 12 64 11 66 -8
7 -373 -57 -379 -67 -8 -13 -52 -219 -47 -224 1 -2 120 -6 263 -10 303 -8 361
-15 434 -52 73 -37 101 -89 101 -182 0 -79 -82 -483 -113 -556 -63 -149 -168
-243 -313 -279 -75 -19 -736 -125 -830 -133 -154 -13 -244 59 -244 194 0 43
44 280 54 290 6 6 490 82 495 77 2 -2 -1 -26 -6 -54 l-10 -50 31 5 c17 3 101
16 185 30 85 14 158 28 162 32 7 8 49 193 49 217 0 11 -38 15 -177 21 -340 13
-438 22 -486 43 -82 37 -115 93 -116 202 -1 83 70 459 100 531 49 117 127 199
243 255 83 40 88 41 508 109 362 59 452 64 521 31z m-1653 -224 c0 -17 -89
-404 -94 -409 -2 -3 -173 -32 -378 -64 -205 -33 -376 -63 -379 -67 -7 -8 -62
-263 -57 -266 2 -2 162 23 356 54 193 31 352 55 352 53 0 -6 -92 -428 -94
-429 0 -1 -149 -25 -331 -53 -181 -28 -342 -54 -356 -57 -25 -5 -28 -12 -54
-134 -16 -72 -27 -132 -24 -134 2 -2 182 25 399 59 217 35 396 62 397 61 1 -1
-15 -98 -36 -216 l-37 -215 -30 -7 c-51 -13 -1315 -210 -1320 -206 -2 3 61
301 141 663 80 363 145 669 145 681 0 11 -9 29 -20 39 -18 17 -27 17 -106 6
-47 -7 -88 -11 -89 -9 -4 4 84 411 91 417 5 6 1457 238 1497 240 15 1 27 -3
27 -7z m-2030 -323 c0 -6 -16 -96 -36 -200 l-37 -189 -31 0 c-30 0 -1826 -104
-1951 -113 -33 -3 -53 -2 -45 1 13 5 2072 508 2093 511 4 0 7 -4 7 -10z m-265
-1591 c-21 -106 -38 -194 -39 -195 -4 -4 -2038 -124 -2042 -120 -4 4 2110 515
2114 511 2 -1 -13 -89 -33 -196z"/>
</g>
</svg>
