<svg version="1" xmlns="http://www.w3.org/2000/svg" width="1097.333" height="1097.333" viewBox="0 0 823 823"><path d="M0 236.3v236.3l194.2-38.7c106.9-21.3 194.4-38.6 194.6-38.4.5.4-7 39.9-7.7 40.7-.3.4-85.2 8.8-188.6 18.8-103.4 9.9-189 18.3-190.2 18.6L0 474v349h823V0H0v236.3zm768.3 36.1c8.8 4.3 10.5 13 6.6 33.9-1.2 6.7-2.7 12.7-3.3 13.3-.6.6-10.5 2.6-22.1 4.3-11.5 1.8-22.2 3.5-23.6 3.8l-2.7.5 1.5-6.2c.7-3.4 1.2-6.4 1.1-6.6-.8-.7-37.3 5.7-37.9 6.7-.8 1.3-5.2 21.9-4.7 22.4.1.2 12 .6 26.3 1 30.3.8 36.1 1.5 43.4 5.2 7.3 3.7 10.1 8.9 10.1 18.2 0 7.9-8.2 48.3-11.3 55.6-6.3 14.9-16.8 24.3-31.3 27.9-7.5 1.9-73.6 12.5-83 13.3-15.4 1.3-24.4-5.9-24.4-19.4 0-4.3 4.4-28 5.4-29 .6-.6 49-8.2 49.5-7.7.2.2-.1 2.6-.6 5.4l-1 5 3.1-.5c1.7-.3 10.1-1.6 18.5-3 8.5-1.4 15.8-2.8 16.2-3.2.7-.8 4.9-19.3 4.9-21.7 0-1.1-3.8-1.5-17.7-2.1-34-1.3-43.8-2.2-48.6-4.3-8.2-3.7-11.5-9.3-11.6-20.2-.1-8.3 7-45.9 10-53.1 4.9-11.7 12.7-19.9 24.3-25.5 8.3-4 8.8-4.1 50.8-10.9 36.2-5.9 45.2-6.4 52.1-3.1zM603 294.8c0 1.7-8.9 40.4-9.4 40.9-.2.3-17.3 3.2-37.8 6.4-20.5 3.3-37.6 6.3-37.9 6.7-.7.8-6.2 26.3-5.7 26.6.2.2 16.2-2.3 35.6-5.4 19.3-3.1 35.2-5.5 35.2-5.3 0 .6-9.2 42.8-9.4 42.9 0 .1-14.9 2.5-33.1 5.3-18.1 2.8-34.2 5.4-35.6 5.7-2.5.5-2.8 1.2-5.4 13.4-1.6 7.2-2.7 13.2-2.4 13.4.2.2 18.2-2.5 39.9-5.9 21.7-3.5 39.6-6.2 39.7-6.1.1.1-1.5 9.8-3.6 21.6l-3.7 21.5-3 .7c-5.1 1.3-131.5 21-132 20.6-.2-.3 6.1-30.1 14.1-66.3 8-36.3 14.5-66.9 14.5-68.1 0-1.1-.9-2.9-2-3.9-1.8-1.7-2.7-1.7-10.6-.6-4.7.7-8.8 1.1-8.9.9-.4-.4 8.4-41.1 9.1-41.7.5-.6 145.7-23.8 149.7-24 1.5-.1 2.7.3 2.7.7zm-203 32.3c0 .6-1.6 9.6-3.6 20l-3.7 18.9h-3.1c-3 0-182.6 10.4-195.1 11.3-3.3.3-5.3.2-4.5-.1 1.3-.5 207.2-50.8 209.3-51.1.4 0 .7.4.7 1zm-26.5 159.1c-2.1 10.6-3.8 19.4-3.9 19.5-.4.4-203.8 12.4-204.2 12-.4-.4 211-51.5 211.4-51.1.2.1-1.3 8.9-3.3 19.6z"/></svg>